<?xml version="1.0" encoding="utf-8"?>
<!-- Generator: Adobe Illustrator 22.0.0, SVG Export Plug-In . SVG Version: 6.00 Build 0)  -->
<svg version="1.1" id="Layer_1" xmlns="http://www.w3.org/2000/svg" xmlns:xlink="http://www.w3.org/1999/xlink" x="0px" y="0px"
	 viewBox="0 0 28.3 28.3" style="enable-background:new 0 0 28.3 28.3;" xml:space="preserve">
<style type="text/css">
	.st0{fill:#FFFFFF;}
</style>
<g id="XMLID_197_">
	<path id="XMLID_221_" class="st0" d="M16.7,26.4c0.8,0,1.5-0.7,1.5-1.5v-3.6h1c0.6,0,1-0.4,1-1V10.1H8.1v10.2c0,0.6,0.4,1,1,1h1
		v3.6c0,0.8,0.7,1.5,1.5,1.5c0.8,0,1.5-0.7,1.5-1.5v-3.6h2v3.6C15.2,25.7,15.9,26.4,16.7,26.4z"/>
	<path id="XMLID_222_" class="st0" d="M22.8,20.3c0.8,0,1.5-0.7,1.5-1.5v-7.1c0-0.8-0.7-1.5-1.5-1.5c-0.8,0-1.5,0.7-1.5,1.5v7.1
		C21.3,19.5,22,20.3,22.8,20.3z"/>
	<path id="XMLID_223_" class="st0" d="M5.5,20.3c0.8,0,1.5-0.7,1.5-1.5v-7.1c0-0.8-0.7-1.5-1.5-1.5c-0.8,0-1.5,0.7-1.5,1.5v7.1
		C4,19.5,4.7,20.3,5.5,20.3z"/>
	<path id="XMLID_224_" class="st0" d="M19.1,2.1c-0.2-0.2-0.5-0.2-0.7,0L17,3.5l-0.1,0.1c-0.8-0.4-1.7-0.6-2.7-0.6c0,0,0,0,0,0h0
		c0,0,0,0,0,0c-1,0-1.9,0.2-2.7,0.6l-0.1-0.1L10,2.1c-0.2-0.2-0.5-0.2-0.7,0c-0.2,0.2-0.2,0.5,0,0.7l1.3,1.3c-0.4,0.3-0.8,0.6-1.1,1
		c-0.8,1-1.3,2.2-1.4,3.5c0,0,0,0,0,0c0,0.1,0,0.2,0,0.3h12.2c0-0.1,0-0.2,0-0.3c0,0,0,0,0,0c-0.1-1.3-0.6-2.6-1.4-3.5
		c-0.3-0.4-0.7-0.7-1.1-1l1.3-1.3C19.3,2.6,19.3,2.3,19.1,2.1z M11.6,7.3c-0.4,0-0.8-0.3-0.8-0.8s0.3-0.8,0.8-0.8
		c0.4,0,0.8,0.3,0.8,0.8C12.4,6.9,12,7.3,11.6,7.3z M16.7,7.3c-0.4,0-0.8-0.3-0.8-0.8s0.3-0.8,0.8-0.8s0.8,0.3,0.8,0.8
		C17.5,6.9,17.1,7.3,16.7,7.3z"/>
</g>
</svg>
