<?xml version="1.0" encoding="utf-8"?>
<!-- Generator: Adobe Illustrator 22.0.0, SVG Export Plug-In . SVG Version: 6.00 Build 0)  -->
<svg version="1.1" id="Layer_1" xmlns="http://www.w3.org/2000/svg" xmlns:xlink="http://www.w3.org/1999/xlink" x="0px" y="0px"
	 viewBox="0 0 28.3 28.3" style="enable-background:new 0 0 28.3 28.3;" xml:space="preserve">
<style type="text/css">
	.st0{fill:#FFFFFF;}
</style>
<title>apple [#173]</title>
<desc>Created with Sketch.</desc>
<g id="Page-1">
	<g id="Dribbble-Light-Preview" transform="translate(-102.000000, -7439.000000)">
		<g id="icons" transform="translate(56.000000, 160.000000)">
			<path id="apple-_x5B__x23_173_x5D_" class="st0" d="M63.9,7284.9c0.9-1,1.5-2.5,1.3-3.9c-1.3,0-2.8,0.8-3.7,1.8
				c-0.8,0.9-1.5,2.4-1.3,3.8C61.6,7286.7,63,7285.9,63.9,7284.9 M67.1,7293.9c0,3.7,3.4,4.9,3.4,4.9c0,0.1-0.5,1.7-1.8,3.5
				c-1.1,1.5-2.2,3-3.9,3c-1.7,0-2.2-1-4.2-1c-1.9,0-2.6,0.9-4.2,1c-1.7,0.1-2.9-1.6-4-3.1c-2.2-3-3.8-8.5-1.6-12.3
				c1.1-1.8,3.1-3,5.3-3c1.6,0,3.2,1.1,4.2,1.1s2.9-1.3,4.9-1.1c0.8,0,3.2,0.3,4.6,2.4C69.7,7289.4,67.1,7290.9,67.1,7293.9"/>
		</g>
	</g>
</g>
</svg>
