<?xml version="1.0" encoding="utf-8"?>
<!-- Generator: Adobe Illustrator 22.0.0, SVG Export Plug-In . SVG Version: 6.00 Build 0)  -->
<svg version="1.1" id="Layer_1" xmlns="http://www.w3.org/2000/svg" xmlns:xlink="http://www.w3.org/1999/xlink" x="0px" y="0px"
	 viewBox="0 0 28.3 28.3" style="enable-background:new 0 0 28.3 28.3;" xml:space="preserve">
<style type="text/css">
	.st0{fill:#00A49D;stroke:#00A49D;stroke-width:0.5;stroke-miterlimit:10;}
</style>
<g>
	<path class="st0" d="M22.5,4.5h-1.8V2.6C20.7,2.3,20.4,2,20,2s-0.6,0.3-0.6,0.6v1.9h-10V2.6C9.4,2.3,9.1,2,8.7,2
		C8.4,2,8.1,2.3,8.1,2.6v1.9H5.8c-2.5,0-4.5,2-4.5,4.5v12.8c0,2.5,2,4.5,4.5,4.5h8.3c0.4,0,0.6-0.3,0.6-0.6s-0.3-0.6-0.6-0.6H5.8
		c-1.8,0-3.2-1.4-3.2-3.2v-9.4h23.7c0.4,0,0.6-0.3,0.6-0.6V9C27,6.6,25,4.5,22.5,4.5z M2.6,9c0-1.8,1.4-3.2,3.2-3.2h2.3v1.9
		c0,0.4,0.3,0.6,0.6,0.6c0.4,0,0.6-0.3,0.6-0.6V5.8h10v1.9c0,0.4,0.3,0.6,0.6,0.6s0.6-0.3,0.6-0.6V5.8h1.8c1.8,0,3.2,1.4,3.2,3.2
		v2.2H2.6V9z"/>
	<path class="st0" d="M11.8,16.3H6c-0.4,0-0.6,0.3-0.6,0.6c0,0.4,0.3,0.6,0.6,0.6h5.8c0.4,0,0.6-0.3,0.6-0.6
		C12.5,16.6,12.2,16.3,11.8,16.3z M11.8,20H6c-0.4,0-0.6,0.3-0.6,0.6c0,0.4,0.3,0.6,0.6,0.6h5.8c0.4,0,0.6-0.3,0.6-0.6
		C12.5,20.2,12.2,20,11.8,20z M20.8,14c-3.4,0-6.2,2.8-6.2,6.2s2.8,6.2,6.2,6.2s6.2-2.8,6.2-6.2S24.2,14,20.8,14z M20.8,25.1
		c-2.7,0-4.9-2.2-4.9-4.9s2.2-4.9,4.9-4.9s4.9,2.2,4.9,4.9S23.5,25.1,20.8,25.1z"/>
	<path class="st0" d="M23.8,19.5h-2.4v-1.6c0-0.4-0.3-0.6-0.6-0.6c-0.4,0-0.6,0.3-0.6,0.6v2.3c0,0.4,0.3,0.6,0.6,0.6h3
		c0.4,0,0.6-0.3,0.6-0.6C24.4,19.8,24.2,19.5,23.8,19.5z"/>
</g>
</svg>
