<?xml version="1.0" encoding="utf-8"?>
<!-- Generator: Adobe Illustrator 22.0.0, SVG Export Plug-In . SVG Version: 6.00 Build 0)  -->
<svg version="1.1" id="Layer_1" xmlns="http://www.w3.org/2000/svg" xmlns:xlink="http://www.w3.org/1999/xlink" x="0px" y="0px"
	 viewBox="0 0 40 40" style="enable-background:new 0 0 40 40;" xml:space="preserve">
<style type="text/css">
	.st0{fill:#023A66;stroke:#FFFFFF;stroke-width:1.5;stroke-miterlimit:10;}
</style>
<path class="st0" d="M4,22.8L2.3,21c-0.8-0.8-0.8-2,0-2.9L18.5,1.8c0.8-0.8,2-0.8,2.9,0l16.3,16.3c0.8,0.8,0.8,2,0,2.9l-1.9,1.9
	c-0.8,0.8-2.1,0.8-2.9,0l-9.6-10V37c0,1.2-0.9,2-2,2h-2.7c-1.2,0-2-0.9-2-2V12.6L7.1,22.7C6.2,23.5,4.9,23.5,4,22.8z"/>
</svg>
