<?xml version="1.0" encoding="utf-8"?>
<!-- Generator: Adobe Illustrator 22.0.0, SVG Export Plug-In . SVG Version: 6.00 Build 0)  -->
<svg version="1.1" id="Layer_1" xmlns="http://www.w3.org/2000/svg" xmlns:xlink="http://www.w3.org/1999/xlink" x="0px" y="0px"
	 viewBox="0 0 28.3 28.3" style="enable-background:new 0 0 28.3 28.3;" xml:space="preserve">
<style type="text/css">
	.st0{fill:#023A66;}
</style>
<g>
	<path class="st0" d="M11,24.4c0.1,1.7,1.5,3.1,3.2,3.1c1.7,0,3.1-1.4,3.2-3.1H11z"/>
	<polygon class="st0" points="20.1,11.7 20.1,11.7 20.1,11.7 	"/>
	<path class="st0" d="M25.4,19.9l-0.2-0.2c-1-1.1-2.8-2.9-2.8-8c0-3.9-2.7-7.2-6.6-8l-0.1,0V2.4c0-0.8-0.7-1.5-1.5-1.5
		s-1.5,0.7-1.5,1.5v1.2l-0.1,0c-3.9,0.8-6.6,4.1-6.6,8c0,5.1-1.7,6.9-2.8,8l-0.2,0.2c-0.3,0.3-0.4,0.7-0.4,1c0,0.8,0.6,1.5,1.5,1.5
		h20.2c1,0,1.5-0.8,1.5-1.5C25.8,20.5,25.7,20.2,25.4,19.9z M5.6,20.2L5.8,20c1.6-2,2.3-4.8,2.3-8.3c0-3.4,2.7-6.1,6-6.1
		c3.3,0,6.1,2.7,6.1,6.1l-0.2,0l0.1,0c0,3.5,0.8,6.3,2.3,8.3l0.2,0.2H5.6z"/>
</g>
</svg>
