<?xml version="1.0" encoding="utf-8"?>
<!-- Generator: Adobe Illustrator 22.0.0, SVG Export Plug-In . SVG Version: 6.00 Build 0)  -->
<svg version="1.1" id="Layer_1" xmlns="http://www.w3.org/2000/svg" xmlns:xlink="http://www.w3.org/1999/xlink" x="0px" y="0px"
	 viewBox="0 0 45.5 28.3" style="enable-background:new 0 0 45.5 28.3;" xml:space="preserve">
<style type="text/css">
	.st0{fill:#FFFFFF;}
</style>
<g>
	<path class="st0" d="M3.5,18.6c-0.6,0-0.7-0.1-0.7-0.6c0-5.1,0-10.3,0-15.4C2.8,2,2.9,2,3.4,2c8.3,0,16.5,0,24.8,0
		c0.6,0,0.7,0.1,0.7,0.7c0,1.4,0,2.7,0,4.1c0,0.2,0,0.3,0,0.5c0.6,0,1.2,0,1.8,0c0-1.6,0-3.1,0-4.6s-0.9-2.3-2.4-2.3
		c-8.3,0-16.6,0-24.8,0C1.9,0.2,1,1,1,2.6C1,8.7,1,14.9,1,21c0,1.4,0.8,2.2,2.2,2.2c2.9,0,5.8,0,8.7,0c0.2,0,0.4,0,0.6,0
		c-0.1,1.1-0.6,1.8-1.5,2.2c-0.5,0.2-1,0.4-1.6,0.5c-0.7,0.2-1.1,0.8-0.6,1.3c0.2,0.2,0.5,0.3,0.8,0.3c3.1,0,6.2,0,9.3,0
		c1,0,2,0,3,0c0.3,0,0.6-0.1,0.8-0.3c0.4-0.5,0.1-1.2-0.6-1.3c-0.5-0.1-1.1-0.2-1.5-0.5c-0.9-0.4-1.3-1.2-1.4-2.2c1.8,0,3.6,0,5.4,0
		c0-1.6,0-3.1,0-4.6c-0.2,0-0.4,0-0.6,0C17.1,18.6,10.3,18.6,3.5,18.6z M15.9,22.1c-0.6,0-1.1-0.5-1.1-1.1c0-0.6,0.5-1.1,1.1-1.1
		S17,20.4,17,21C17,21.6,16.5,22.1,15.9,22.1z"/>
	<path class="st0" d="M34.9,25c-2.2,0-4.4,0-6.6,0c-0.8,0-1-0.2-1-1c0-4.2,0-8.5,0-12.7c0-0.8,0.2-1,1-1c2.9,0,5.8,0,8.7,0
		c0.8,0,1,0.2,1,1c0,0.6,0,1.2,0,1.8c0.5,0,0.9,0,1.4,0c0-0.9,0-1.8,0-2.7c0-1.2-0.6-1.8-1.8-1.8c-3.3,0-6.6,0-9.9,0
		C26.6,8.7,26,9.3,26,10.4c0,5.2,0,10.3,0,15.5c0,1.1,0.6,1.7,1.7,1.7c2.5,0,5,0,7.6,0c0.1,0,0.3,0,0.3,0c-0.2-0.8-0.2-1.9-0.2-2.6
		C35.2,25,35.1,25,34.9,25z M32.8,27c-0.4,0-0.7-0.3-0.7-0.7s0.3-0.7,0.7-0.7s0.7,0.3,0.7,0.7S33.2,27,32.8,27z"/>
	<path class="st0" d="M42.9,14.7c-1.4,0-2.9,0-4.3,0c-1.2,0-1.7,0.5-1.7,1.7c0,1.6,0,3.2,0,4.8c0,1.6,0,3.3,0,4.9
		c0,1,0.5,1.5,1.5,1.5c1.5,0,3,0,4.5,0c1,0,1.5-0.6,1.5-1.5c0-3.3,0-6.5,0-9.8C44.4,15.2,44,14.7,42.9,14.7z M40.8,27
		c-0.4,0-0.7-0.3-0.7-0.7s0.3-0.7,0.7-0.7s0.7,0.3,0.7,0.7S41.2,27,40.8,27z M43.4,24.7c0,0.3-0.2,0.5-0.5,0.5h-4.5
		c-0.3,0-0.5-0.2-0.5-0.5v-8.3c0-0.3,0.2-0.5,0.5-0.5h4.5c0.3,0,0.5,0.2,0.5,0.5V24.7z"/>
</g>
</svg>
