<?xml version="1.0" encoding="utf-8"?>
<!-- Generator: Adobe Illustrator 22.0.0, SVG Export Plug-In . SVG Version: 6.00 Build 0)  -->
<svg version="1.1" id="Layer_1" xmlns="http://www.w3.org/2000/svg" xmlns:xlink="http://www.w3.org/1999/xlink" x="0px" y="0px"
	 viewBox="0 0 28.3 28.3" style="enable-background:new 0 0 28.3 28.3;" xml:space="preserve">
<style type="text/css">
	.st0{fill:#00A49D;}
</style>
<path class="st0" d="M14.9,20.2c-0.2,0.2-0.5,0.3-0.7,0.3c-0.3,0-0.5-0.1-0.7-0.3l-5.3-5.8c-0.4-0.4-0.3-1,0.1-1.4
	c0.4-0.4,1-0.3,1.4,0.1l3.6,3.9V2.2c0-0.5,0.4-1,1-1c0.5,0,1,0.4,1,1v14.7l3.6-3.9c0.4-0.4,1-0.4,1.4-0.1c0.4,0.4,0.4,1,0.1,1.4
	L14.9,20.2z M3.2,18.2c0-0.5-0.4-1-1-1c-0.5,0-1,0.4-1,1v0.1c0,1.8,0,3.3,0.2,4.4c0.2,1.2,0.5,2.2,1.3,3c0.8,0.8,1.8,1.1,3,1.3
	c1.2,0.2,2.6,0.2,4.4,0.2h8.1c1.8,0,3.3,0,4.4-0.2c1.2-0.2,2.2-0.5,3-1.3c0.8-0.8,1.1-1.8,1.3-3c0.2-1.2,0.2-2.6,0.2-4.4v-0.1
	c0-0.5-0.4-1-1-1c-0.5,0-1,0.4-1,1c0,1.9,0,3.2-0.1,4.2c-0.1,1-0.4,1.5-0.7,1.9s-0.9,0.6-1.9,0.7c-1,0.1-2.3,0.1-4.2,0.1h-8
	c-1.9,0-3.2,0-4.2-0.1c-1-0.1-1.5-0.4-1.9-0.7c-0.4-0.4-0.6-0.9-0.7-1.9C3.2,21.4,3.2,20.1,3.2,18.2z"/>
</svg>
