<?xml version="1.0" encoding="utf-8"?>
<!-- Generator: Adobe Illustrator 22.0.0, SVG Export Plug-In . SVG Version: 6.00 Build 0)  -->
<svg version="1.1" id="Layer_1" xmlns="http://www.w3.org/2000/svg" xmlns:xlink="http://www.w3.org/1999/xlink" x="0px" y="0px"
	 viewBox="0 0 40 40" style="enable-background:new 0 0 40 40;" xml:space="preserve">
<style type="text/css">
	.st0{fill:#0DCAC3;}
</style>
<g>
	<path class="st0" d="M26.6,24.2c0.2-0.3,1.7-1.8,1.9-1.9c0,0,0,0.1,0,0.1c0,0,0,0.1,0,0.1c0,4.4,0,7.7,0,12.1
		c0,0.5-0.1,0.9-0.2,1.3c-0.5,1.4-1.6,2.4-3,2.7c-0.2,0-0.4,0.1-0.6,0.1c-0.1,0-0.2,0-0.2,0c-5.7,0-11.4,0-17.1,0
		c-0.3,0-0.7,0-1-0.1c-1.5-0.3-2.8-1.6-3.1-3.2c-0.1-0.3-0.1-0.6-0.1-0.9c0-6.9,0-13.7,0-20.6c0-1.3,0-2.7,0-4C3.2,9,3.4,8.2,4,7.5
		C4.7,6.6,5.6,6.1,6.7,6C6.8,6,7,6,7.1,6c0.5,0,1.1,0,1.6,0c0,0,0.1,0,0.1,0c0,0,0,0.1,0,0.1C8.6,6.8,8.5,7.5,8.5,8.2
		c0,0.5,0.4,0.9,0.9,1c0.1,0,0.1,0,0.2,0c4.1,0,8.2,0,12.3,0c0,0,0.1,0,0.1,0c0.6,0,1-0.4,1-1.1c0-0.3,0-0.5,0-0.8
		c0-0.4-0.1-0.9-0.3-1.3c0,0,0-0.1,0-0.1c0,0,0.1,0,0.1,0c0.6,0,1.2,0,1.7,0c1.8,0,3.4,1.4,3.8,3.2c0,0.2,0.1,0.5,0.1,0.7
		c0,0.8,0,1.5,0,2.3c0,0,0,0.1,0,0.1c-0.6,0.6-1.2,1.2-1.8,1.8c0,0,0,0-0.1,0c0-0.1,0-0.1,0-0.2c0-0.6,0-1.1,0-1.7c0,0,0-0.1,0-0.1
		c0-0.3-0.2-0.4-0.4-0.4c-0.1,0-0.1,0-0.2,0c-0.5,0-1,0-1.5,0c-6.3,0-12.6,0-18.9,0c-0.1,0-0.2,0-0.2,0c-0.3,0-0.4,0.2-0.4,0.4
		c0,0.1,0,0.1,0,0.2c0,7.2,0,14.5,0,21.7c0,0.3,0,0.7,0.1,1c0.4,1,1.1,1.5,2.1,1.7c0.1,0,0.3,0,0.4,0c3.5,0,6.9,0,10.4,0
		c2,0,3.9,0,5.9,0c0.4,0,0.7-0.1,1.1-0.2c0.9-0.4,1.4-1.1,1.5-2c0-0.2,0-0.3,0-0.5c0-3.6,0-6.1,0-9.7C26.6,24.3,26.6,24.2,26.6,24.2
		z"/>
	<path class="st0" d="M36.2,6.8c0.1-0.1,0.2-0.2,0.3-0.3c0,0,0.1-0.1,0.1-0.1c0.1-0.1,0.3-0.1,0.4,0c0,0,0.1,0,0.1,0.1
		c0.7,0.7,1.5,1.5,2.2,2.2c0,0,0.1,0.1,0.1,0.1c0.1,0.1,0.1,0.3,0,0.4c0,0-0.1,0.1-0.1,0.1c-0.8,0.8-1.6,1.6-2.3,2.3
		c-4.1,4.1-8.1,8.1-12.2,12.2c0,0-0.1,0.1-0.1,0.1c0,0,0,0,0,0c0,0,0,0,0,0c-0.9-0.9-1.8-1.8-2.7-2.7c0,0,0,0,0-0.1
		c0,0,0-0.1,0.1-0.1c0,0,0.1-0.1,0.1-0.1c4.4-4.4,8.7-8.7,13.1-13.1c0,0,0.1-0.1,0.1-0.1c-0.1-0.1-0.2-0.2-0.3-0.3
		c0,0-0.1,0.1-0.1,0.1c-1.3,1.3-2.6,2.6-3.8,3.8c0,0-0.1,0.1-0.1,0.1c-0.2,0.1-0.4,0.2-0.6,0.1c-0.2-0.1-0.3-0.3-0.4-0.5
		c0-0.2,0-0.3,0.1-0.4c0,0,0.1-0.1,0.1-0.1c1.5-1.5,2.9-2.9,4.4-4.4c0,0,0.1-0.1,0.1-0.1c0.2-0.2,0.5-0.2,0.7,0
		c0.1,0,0.1,0.1,0.2,0.1C35.7,6.3,35.9,6.5,36.2,6.8C36.1,6.7,36.1,6.8,36.2,6.8z"/>
	<path class="st0" d="M15.8,7.6c-1.7,0-3.5,0-5.2,0c-0.1,0-0.1,0-0.2,0c-0.2,0-0.3-0.1-0.3-0.4c0-0.3,0-0.5,0.1-0.8
		c0-0.2,0.1-0.5,0.2-0.7c0.2-0.5,0.5-0.9,1.1-1.1c0.2-0.1,0.4-0.2,0.7-0.2c0.1,0,0.2-0.1,0.3-0.1c0.1,0,0.1-0.1,0.2-0.1
		C13,4,13.1,3.8,13.1,3.5c0-0.1,0-0.3,0-0.4c0-0.7,0.3-1.3,0.8-1.8c0.5-0.5,1.2-0.8,1.9-0.8c1.4,0,2.5,1,2.7,2.3c0,0.1,0,0.3,0,0.4
		c0,0.1,0,0.2,0,0.4C18.6,3.8,18.8,4,19,4.1c0.1,0.1,0.2,0.1,0.4,0.2c0.2,0.1,0.4,0.1,0.6,0.2c0.2,0.1,0.3,0.1,0.5,0.2
		c0.4,0.2,0.7,0.5,0.9,0.9c0.1,0.3,0.2,0.6,0.2,0.9c0,0.3,0,0.5,0,0.8c0,0,0,0,0,0.1c0,0.2-0.1,0.3-0.3,0.3c-0.1,0-0.1,0-0.2,0
		C19.3,7.6,17.6,7.6,15.8,7.6z"/>
	<path class="st0" d="M21.4,21.8c0.9,0.9,1.7,1.7,2.6,2.6c-0.1,0-0.1,0.1-0.1,0.1c-1.3,0.6-2.6,1.2-4,1.9c0,0,0,0-0.1,0
		c-0.1,0-0.3,0-0.4-0.1c-0.1-0.1-0.1-0.2-0.1-0.4c0,0,0-0.1,0-0.1c0.6-1.3,1.2-2.6,1.8-3.9C21.3,21.9,21.3,21.9,21.4,21.8z"/>
	<path class="st0" d="M11.8,19.4c-1.2,0-2.5,0-3.7,0c-0.1,0-0.2,0-0.3,0c-0.3-0.1-0.6-0.4-0.6-0.8c0-0.4,0.3-0.6,0.6-0.7
		c0.1,0,0.2,0,0.3,0c1.4,0,2.8,0,4.2,0c1,0,3.1,0,4.2,0c0.1,0,0.2,0,0.3,0c0.4,0.1,0.6,0.4,0.6,0.8c0,0.4-0.3,0.7-0.7,0.7
		c-0.1,0-0.1,0-0.2,0C15.2,19.4,13,19.4,11.8,19.4z"/>
	<path class="st0" d="M11.8,22.6c1.2,0,3.5,0,4.7,0c0.1,0,0.2,0,0.3,0c0.4,0.1,0.7,0.4,0.6,0.8c0,0.4-0.3,0.7-0.7,0.7
		c0,0-0.1,0-0.1,0c-2.5,0-6,0-8.5,0c-0.1,0-0.2,0-0.3,0c-0.4-0.1-0.6-0.4-0.6-0.8c0-0.4,0.3-0.7,0.7-0.7c0.1,0,0.1,0,0.2,0
		C9.3,22.6,10.6,22.6,11.8,22.6z"/>
	<path class="st0" d="M11.8,27.4c1.2,0,3.5,0,4.7,0c0.1,0,0.1,0,0.2,0c0.4,0,0.7,0.3,0.7,0.7c0,0.4-0.3,0.8-0.7,0.8
		c-0.1,0-0.2,0-0.2,0c-2.5,0-6,0-8.4,0c-0.1,0-0.2,0-0.2,0c-0.3,0-0.7-0.4-0.7-0.8c0-0.4,0.3-0.7,0.7-0.7c0.1,0,0.1,0,0.2,0
		C9.4,27.4,10.6,27.4,11.8,27.4z"/>
	<path class="st0" d="M37.7,6.4c0.1-0.1,0.2-0.2,0.3-0.3c0.3-0.2,0.7-0.2,1,0.1c0.1,0.1,0.2,0.2,0.3,0.3c0.1,0.1,0.2,0.2,0.2,0.2
		c0.3,0.3,0.3,0.8,0,1.2c0,0-0.1,0.1-0.1,0.1c0,0,0,0,0,0C39.3,8,37.7,6.5,37.7,6.4z"/>
</g>
</svg>
