<?xml version="1.0" encoding="utf-8"?>
<!-- Generator: Adobe Illustrator 22.0.0, SVG Export Plug-In . SVG Version: 6.00 Build 0)  -->
<svg version="1.1"
	 id="Layer_1" text-rendering="geometricPrecision" shape-rendering="geometricPrecision" image-rendering="optimizeQuality"
	 xmlns="http://www.w3.org/2000/svg" xmlns:xlink="http://www.w3.org/1999/xlink" x="0px" y="0px" viewBox="0 0 28.3 28.3"
	 style="enable-background:new 0 0 28.3 28.3;" xml:space="preserve">
<style type="text/css">
	.st0{fill:#FFFFFF;}
	.st1{fill:url(#SVGID_1_);}
</style>
<g>
	<path class="st0" d="M20.4,5.8L19,5.2l-4.7,0.3L5.5,8.9L8,17.4l1.5,6.9l1.9,3.3C12.2,27.9,13,28,14,28c0.7,0,1.3-0.1,2-0.2l1.6-5.9
		l3.2-5l1.4-3.8L20.4,5.8z"/>
	
		<linearGradient id="SVGID_1_" gradientUnits="userSpaceOnUse" x1="14.15" y1="0.8859" x2="14.15" y2="29.6731" gradientTransform="matrix(1 0 0 -1 0 28.9291)">
		<stop  offset="0" style="stop-color:#00B2FF"/>
		<stop  offset="1" style="stop-color:#006AFF"/>
	</linearGradient>
	<path class="st1" d="M14.1,0.4C6.5,0.4,0.3,6.6,0.3,14.2c0,6.7,4.7,12.2,11,13.5V17.2H9.1v-3.7h2.2v-2.2c0-3,1.3-4.9,4.9-4.9h3v3.7
		h-1.9c-1.4,0-1.5,0.5-1.5,1.5v1.9h3.4l-0.3,3.7h-3v10.6c6.7-0.9,12-6.6,12-13.6C27.8,6.6,21.7,0.4,14.1,0.4z"/>
</g>
</svg>
