<?xml version="1.0" encoding="utf-8"?>
<!-- Generator: Adobe Illustrator 22.0.0, SVG Export Plug-In . SVG Version: 6.00 Build 0)  -->
<svg version="1.1"
	 id="Layer_1" image-rendering="optimizeQuality" text-rendering="geometricPrecision" shape-rendering="geometricPrecision"
	 xmlns="http://www.w3.org/2000/svg" xmlns:xlink="http://www.w3.org/1999/xlink" x="0px" y="0px" viewBox="0 0 56.7 10.2"
	 style="enable-background:new 0 0 56.7 10.2;" xml:space="preserve">
<style type="text/css">
	.st0{fill:none;}
	.st1{fill:url(#SVGID_1_);}
	.st2{fill:url(#SVGID_2_);}
	.st3{fill:url(#SVGID_3_);}
	.st4{fill:url(#SVGID_4_);}
	.st5{fill:url(#SVGID_5_);}
	.st6{fill:url(#SVGID_6_);}
	.st7{fill:url(#SVGID_7_);}
	.st8{fill:url(#SVGID_8_);}
	.st9{fill:url(#SVGID_9_);}
</style>
<g>
	<path class="st0" d="M0.4,0.3"/>
	
		<linearGradient id="SVGID_1_" gradientUnits="userSpaceOnUse" x1="5.3183" y1="9.5831" x2="5.3184" y2="2.8829" gradientTransform="matrix(1 0 0 -1 0 10.2541)">
		<stop  offset="0" style="stop-color:#FFD433"/>
		<stop  offset="0.471" style="stop-color:#FABE2B"/>
		<stop  offset="1" style="stop-color:#F4A722"/>
	</linearGradient>
	<path class="st1" d="M8.3,9.6L7.7,6.3L10,3.9L6.8,3.5L5.3,0.5L3.8,3.5L0.6,3.9l2.3,2.4L2.4,9.6L5.3,8L8.3,9.6z"/>
	
		<linearGradient id="SVGID_2_" gradientUnits="userSpaceOnUse" x1="0.3592" y1="9.9669" x2="0.3592" y2="9.9669" gradientTransform="matrix(1 0 0 -1 0 10.2541)">
		<stop  offset="0" style="stop-color:#FFD433"/>
		<stop  offset="0.471" style="stop-color:#FABE2B"/>
		<stop  offset="1" style="stop-color:#F4A722"/>
	</linearGradient>
	<path class="st2" d="M0.4,0.3"/>
	
		<linearGradient id="SVGID_3_" gradientUnits="userSpaceOnUse" x1="16.8963" y1="9.5831" x2="16.8964" y2="2.8829" gradientTransform="matrix(1 0 0 -1 0 10.2541)">
		<stop  offset="0" style="stop-color:#FFD433"/>
		<stop  offset="0.471" style="stop-color:#FABE2B"/>
		<stop  offset="1" style="stop-color:#F4A722"/>
	</linearGradient>
	<path class="st3" d="M19.9,9.6l-0.6-3.3l2.3-2.4l-3.2-0.5l-1.5-2.9l-1.5,2.9l-3.2,0.5l2.3,2.4L14,9.6L16.9,8L19.9,9.6z"/>
	
		<linearGradient id="SVGID_4_" gradientUnits="userSpaceOnUse" x1="0.3592" y1="9.9669" x2="0.3592" y2="9.9669" gradientTransform="matrix(1 0 0 -1 0 10.2541)">
		<stop  offset="0" style="stop-color:#FFD433"/>
		<stop  offset="0.471" style="stop-color:#FABE2B"/>
		<stop  offset="1" style="stop-color:#F4A722"/>
	</linearGradient>
	<path class="st4" d="M0.4,0.3"/>
	
		<linearGradient id="SVGID_5_" gradientUnits="userSpaceOnUse" x1="28.4741" y1="9.5831" x2="28.4743" y2="2.8829" gradientTransform="matrix(1 0 0 -1 0 10.2541)">
		<stop  offset="0" style="stop-color:#FFD433"/>
		<stop  offset="0.471" style="stop-color:#FABE2B"/>
		<stop  offset="1" style="stop-color:#F4A722"/>
	</linearGradient>
	<path class="st5" d="M31.4,9.6l-0.6-3.3l2.3-2.4L30,3.5l-1.5-2.9L27,3.5l-3.2,0.5l2.3,2.4l-0.5,3.3L28.5,8L31.4,9.6z"/>
	
		<linearGradient id="SVGID_6_" gradientUnits="userSpaceOnUse" x1="0.3592" y1="9.9669" x2="0.3592" y2="9.9669" gradientTransform="matrix(1 0 0 -1 0 10.2541)">
		<stop  offset="0" style="stop-color:#FFD433"/>
		<stop  offset="0.471" style="stop-color:#FABE2B"/>
		<stop  offset="1" style="stop-color:#F4A722"/>
	</linearGradient>
	<path class="st6" d="M0.4,0.3"/>
	
		<linearGradient id="SVGID_7_" gradientUnits="userSpaceOnUse" x1="40.0521" y1="9.5831" x2="40.0523" y2="2.8829" gradientTransform="matrix(1 0 0 -1 0 10.2541)">
		<stop  offset="0" style="stop-color:#FFD433"/>
		<stop  offset="0.471" style="stop-color:#FABE2B"/>
		<stop  offset="1" style="stop-color:#F4A722"/>
	</linearGradient>
	<path class="st7" d="M43,9.6l-0.6-3.3l2.3-2.4l-3.2-0.5l-1.5-2.9l-1.5,2.9l-3.2,0.5l2.3,2.4l-0.5,3.3L40.1,8L43,9.6z"/>
	
		<linearGradient id="SVGID_8_" gradientUnits="userSpaceOnUse" x1="0.3592" y1="9.9669" x2="0.3592" y2="9.9669" gradientTransform="matrix(1 0 0 -1 0 10.2541)">
		<stop  offset="0" style="stop-color:#FFD433"/>
		<stop  offset="0.471" style="stop-color:#FABE2B"/>
		<stop  offset="1" style="stop-color:#F4A722"/>
	</linearGradient>
	<path class="st8" d="M0.4,0.3"/>
	
		<linearGradient id="SVGID_9_" gradientUnits="userSpaceOnUse" x1="51.6299" y1="9.5831" x2="51.63" y2="2.8829" gradientTransform="matrix(1 0 0 -1 0 10.2541)">
		<stop  offset="0" style="stop-color:#FFD433"/>
		<stop  offset="0.471" style="stop-color:#FABE2B"/>
		<stop  offset="1" style="stop-color:#F4A722"/>
	</linearGradient>
	<path class="st9" d="M54.6,9.6L54,6.3l2.3-2.4l-3.2-0.5l-1.5-2.9l-1.5,2.9l-3.2,0.5l2.3,2.4l-0.5,3.3L51.6,8L54.6,9.6z"/>
</g>
</svg>
