<?xml version="1.0" encoding="utf-8"?>
<!-- Generator: Adobe Illustrator 22.0.0, SVG Export Plug-In . SVG Version: 6.00 Build 0)  -->
<svg version="1.1" id="Layer_1" xmlns="http://www.w3.org/2000/svg" xmlns:xlink="http://www.w3.org/1999/xlink" x="0px" y="0px"
	 viewBox="0 0 28.3 28.3" style="enable-background:new 0 0 28.3 28.3;" xml:space="preserve">
<style type="text/css">
	.st0{fill:#1A73E8;}
	.st1{fill:#EA4335;}
	.st2{fill:#4285F4;}
	.st3{fill:#FBBC04;}
	.st4{fill:#34A853;}
</style>
<g>
	<path class="st0" d="M17,1.2c-0.9-0.3-1.8-0.4-2.8-0.4c-2.9,0-5.4,1.3-7.1,3.3l4.4,3.7L17,1.2z"/>
	<path class="st1" d="M7,4.1c-1.4,1.7-2.2,3.8-2.2,6c0,1.8,0.3,3.2,0.9,4.4l5.7-6.7L7,4.1z"/>
	<path class="st2" d="M14.2,6.6c2,0,3.6,1.6,3.6,3.6c0,0.8-0.3,1.7-0.8,2.3l5.5-6.6C21.3,3.6,19.3,2,17,1.2l-5.5,6.6
		C12.1,7,13.1,6.6,14.2,6.6"/>
	<path class="st3" d="M14.2,13.7c-2,0-3.6-1.6-3.6-3.6c0-0.8,0.3-1.6,0.8-2.3l-5.7,6.7c1,2.1,2.6,3.9,4.2,6l6.9-8.2
		C16.2,13.2,15.2,13.7,14.2,13.7"/>
	<path class="st4" d="M16.8,22.9c3.1-4.9,6.7-7.1,6.7-12.7c0-1.6-0.4-3-1-4.3L10,20.6c0.5,0.7,1.1,1.4,1.6,2.2
		c1.9,2.9,1.4,4.7,2.6,4.7S14.9,25.8,16.8,22.9"/>
</g>
</svg>
