<?xml version="1.0" encoding="utf-8"?>
<!-- Generator: Adobe Illustrator 22.0.0, SVG Export Plug-In . SVG Version: 6.00 Build 0)  -->
<svg version="1.1" id="Layer_1" xmlns="http://www.w3.org/2000/svg" xmlns:xlink="http://www.w3.org/1999/xlink" x="0px" y="0px"
	 viewBox="0 0 28.3 28.3" style="enable-background:new 0 0 28.3 28.3;" xml:space="preserve">
<style type="text/css">
	.st0{fill:#00A49D;}
</style>
<g id="home">
	<path class="st0" d="M27.2,9.6L15.7,2.1c-1-0.6-2.2-0.6-3.1,0L1.1,9.6C0.7,9.9,0.5,10.5,0.8,11c0,0,0,0,0,0
		c0.3,0.4,0.9,0.6,1.3,0.3c0,0,0,0,0,0l3.3-2.2v14.6c-0.1,1.6,1.1,3,2.7,3c0,0,0,0,0,0h11.9c1.6-0.1,2.8-1.4,2.7-3c0,0,0,0,0,0V9.1
		l3.3,2.2c0.2,0.1,0.3,0.2,0.5,0.2c0.3,0,0.6-0.2,0.8-0.4C27.8,10.6,27.7,10,27.2,9.6C27.3,9.7,27.2,9.7,27.2,9.6z M20.9,23.7
		c0,0.6-0.4,1.1-0.8,1.1H8.2c-0.4,0-0.8-0.5-0.8-1.1V7.8l6.2-4.1c0.3-0.2,0.7-0.2,1,0l6.2,4.1V23.7z"/>
</g>
</svg>
