<?xml version="1.0" encoding="utf-8"?>
<!-- Generator: Adobe Illustrator 22.0.0, SVG Export Plug-In . SVG Version: 6.00 Build 0)  -->
<svg version="1.1" id="Layer_1" xmlns="http://www.w3.org/2000/svg" xmlns:xlink="http://www.w3.org/1999/xlink" x="0px" y="0px"
	 viewBox="0 0 28.3 28.3" style="enable-background:new 0 0 28.3 28.3;" xml:space="preserve">
<style type="text/css">
	.st0{fill:#FFFFFF;}
</style>
<path class="st0" d="M4.6,7.4c0,0-2.1,2-2.3,4.2V12c0.1,1.7,1.4,2.8,1.4,2.8c2.1,2.1,7.2,4.7,8.4,5.2c0,0,0.1,0,0.1,0l0,0v0
	C9,12.8,4.6,7.4,4.6,7.4L4.6,7.4z M11.5,21.8c0-0.1-0.1-0.1-0.1-0.1L2.8,22c0.9,1.6,2.5,2.9,4.1,2.5C8,24.2,10.6,22.5,11.5,21.8
	C11.5,21.8,11.5,21.8,11.5,21.8L11.5,21.8z M11.6,20.9c-3.7-2.5-11-6.4-11-6.4c-0.2,0.5-0.2,1-0.2,1.5v0.1c0,1.2,0.5,2.1,0.5,2.1
	c0.9,2,2.7,2.5,2.7,2.5c0.8,0.3,1.6,0.4,1.6,0.4c0.1,0,5.1,0,6.4,0c0.1,0,0.1-0.1,0.1-0.1L11.6,20.9C11.6,20.9,11.6,20.9,11.6,20.9
	L11.6,20.9z M10.8,4c-1.7,0.4-2.9,1.9-3,3.6v0.5C7.9,8.8,8,9.3,8,9.3c0.8,3.3,4.5,8.8,5.2,10c0.1,0.1,0.1,0,0.1,0
	c0,0,0.1-0.1,0.1-0.1C14.7,7,12.2,3.7,12.2,3.7C11.8,3.8,10.8,4,10.8,4L10.8,4z M20.4,6.6c0,0-0.6-2.1-2.8-2.6c0,0-0.7-0.2-1.4-0.3
	c0,0-2.5,3.2-1.3,15.5c0,0.1,0.1,0.1,0.1,0.1c0.1,0,0.1,0,0.1,0c0.8-1.2,4.5-6.6,5.2-10C20.3,9.3,20.7,7.7,20.4,6.6L20.4,6.6z
	 M17,21.7c0,0-0.1,0-0.1,0.1c0,0,0,0.1,0,0.1c0.8,0.6,3.3,2.3,4.5,2.7c0,0,0.2,0.1,0.5,0.1H22c0.8,0,2.2-0.4,3.5-2.6L17,21.7
	L17,21.7z M26,12c0.2-2.4-2.2-4.6-2.2-4.6c0,0-4.4,5.4-7.7,12.5c0,0,0,0.1,0,0.1l0,0h0.1c1.2-0.6,6.3-3.2,8.4-5.2
	C24.6,14.8,25.9,13.7,26,12L26,12z M27.8,14.5c0,0-7.2,3.9-11,6.4c0,0-0.1,0,0,0.1c0,0,0,0.1,0.1,0.1c1.3,0,6.4,0,6.5,0
	c0,0,0.7,0,1.5-0.3c0,0,1.8-0.6,2.7-2.6C27.6,18.1,28.4,16.4,27.8,14.5L27.8,14.5z"/>
</svg>
