<?xml version="1.0" encoding="utf-8"?>
<!-- Generator: Adobe Illustrator 22.0.0, SVG Export Plug-In . SVG Version: 6.00 Build 0)  -->
<svg version="1.1" id="Layer_1" xmlns="http://www.w3.org/2000/svg" xmlns:xlink="http://www.w3.org/1999/xlink" x="0px" y="0px"
	 viewBox="0 0 32.3 28.3" style="enable-background:new 0 0 32.3 28.3;" xml:space="preserve">
<style type="text/css">
	.st0{fill:#CBCBCB;}
</style>
<g id="jP3ye2_1_">
	<g>
		<path class="st0" d="M18.5,24.8c3.2-1.7,6-3.8,7.8-6.9c-1,0-2,0.1-3,0c-3.2-0.3-6-3.2-6.2-6.4c-0.2-3.6,2-6.8,5.2-7.7
			c5.1-1.3,9.6,2.6,9.2,7.8c-0.3,3.6-1.5,6.7-4.2,9.1c-2.3,2.1-5.1,3.3-8.1,4c-0.1,0-0.3,0-0.4,0.1C18.7,24.8,18.6,24.8,18.5,24.8z"
			/>
		<path class="st0" d="M10.1,17.9c-0.9,0-1.9,0.1-2.9,0c-3.5-0.4-6.3-3.3-6.4-6.8C0.7,7.4,3.2,4.3,6.7,3.7c4.9-0.9,9.2,3.2,8.6,8.3
			c-0.3,2.7-1.1,5.2-2.8,7.3c-2.2,2.7-5.1,4.2-8.4,5.2c-0.6,0.2-1.1,0.3-1.7,0.4c0,0-0.1,0-0.2,0C5.5,23.1,8.3,21,10.1,17.9z"/>
	</g>
</g>
</svg>
