<?xml version="1.0" encoding="utf-8"?>
<!-- Generator: Adobe Illustrator 22.0.0, SVG Export Plug-In . SVG Version: 6.00 Build 0)  -->
<svg version="1.1" id="Layer_1" xmlns="http://www.w3.org/2000/svg" xmlns:xlink="http://www.w3.org/1999/xlink" x="0px" y="0px"
	 viewBox="0 0 56.7 56.7" style="enable-background:new 0 0 56.7 56.7;" xml:space="preserve">
<style type="text/css">
	.st0{fill:#FFFFFF;}
</style>
<g>
	<path class="st0" d="M10.4,34.5c0.5,0.2,0.8,0.2,1.3-0.2c2.3-2.2,5-3.1,8.2-2.9c2.3,0.2,4.4,0.9,6.3,2.1c0.5,0.3,1.1,0.5,1.7,0.5
		c2.8,0,5.6,0,8.4,0c1.5,0,2.9,0.5,3.8,1.7c0.2,0.3,0.4,0.2,0.6,0c1.7-1.7,3.4-3.4,5.2-5c0.9-0.9,1.8-1.8,2.9-2.5
		c1.7-1.1,3.6-1.1,5.2-0.2c0.5,0.3,1,0.9,1.2,1.5c0.1,0.3,0,0.6-0.2,0.9c-2.2,3.2-4.5,6.4-6.7,9.6c-0.9,1.2-1.8,2.4-2.6,3.7
		c-1.4,2.2-3.4,3.1-5.9,3.2c-5.2,0.2-10.3,0.5-15.5,0.8c-0.4,0-0.9,0-1.3,0.1c-0.2,0-0.5,0.2-0.5,0.4c-0.2,1.2-1.1,2-1.9,2.9
		c-1,1-2.1,2.1-3.1,3.1c-1.1,1.1-1.8,1.1-2.9,0c-2.9-2.9-5.9-5.8-8.8-8.8c-1.1-1.1-2.3-2.3-3.4-3.5c-0.9-0.9-0.9-1.7,0-2.6
		c1.2-1.2,2.4-2.5,3.7-3.6c0.7-0.6,1.6-1.2,1.9-1.4c0,0,0.4-0.2,0.9-0.3C9.3,34,10.4,34.5,10.4,34.5z M34.9,39c0.6,0,1.3,0,1.9-0.1
		c0.5-0.1,1-0.2,1.4-0.5c0.5-0.4,0.7-1.3,0.5-1.7c-0.3-0.7-1.2-0.9-2-0.9c-3.3,0-6.6-0.1-9.9-0.1c-0.3,0-0.6-0.1-0.9-0.3
		c-1.6-1-3.2-1.7-5-2.1c-3.1-0.5-5.9,0.1-8.2,2.4c-0.4,0.4-0.3,0.6,0,0.9c3,3,6,6,9,9c0.2,0.2,0.6,0.4,0.9,0.4
		c1.4,0,2.8-0.1,4.2-0.2c4.4-0.2,8.8-0.4,13.2-0.7c1.8-0.1,3.2-0.8,4.2-2.3c1.5-2.3,3.2-4.6,4.8-6.9c1.3-1.8,2.6-3.6,3.9-5.4
		c0.4-0.5,0.2-1.1-0.4-1.2c-1-0.2-2-0.2-2.9,0.4c-0.6,0.4-1.2,1-1.8,1.5c-2,2-4.1,4-6.1,6c-0.6,0.6-1.3,1.3-1.8,2.1
		c-1,1.2-2.3,1.5-3.8,1.5c-1.6,0-3.2,0-4.8,0c-0.7,0-1.5,0-2.2,0c-0.3,0-0.7-0.2-0.9-0.5c-0.4-0.6,0-1.3,0.8-1.3
		C29,39,34.9,39,34.9,39z M20.7,47.7c-0.1-0.7-0.4-1.1-0.9-1.5c-3.2-3.2-6.4-6.4-9.6-9.6C9.7,36,9,35.7,8.2,36
		c-0.4,0.2-0.8,0.5-1.2,0.8c-1,1-2,2-3,3c-0.7,0.7-0.7,0.7,0,1.4c2.4,2.4,4.8,4.8,7.2,7.1c1.4,1.4,2.8,2.8,4.3,4.3
		c0.2,0.2,0.5,0.5,0.8,0.1c1.3-1.3,2.5-2.5,3.8-3.8C20.4,48.5,20.6,47.9,20.7,47.7z"/>
	<path class="st0" d="M10.2,21.7c0-0.7,0-1.4,0-2c0.1-1.1,0.7-1.9,1.8-2.2c0.8-0.2,1.7-0.5,2.5-0.7c1-0.3,1.5-1.7,1-2.6
		c-0.4-0.7-0.8-1.5-1.2-2.3c-0.5-1-0.5-2,0.3-2.8c0.9-0.9,1.7-1.9,2.7-2.7c0.8-0.7,1.8-0.6,2.8-0.2C21,6.6,21.8,7,22.6,7.4
		c0.3,0.2,0.6,0.2,1,0.1c0.8-0.2,1.3-0.6,1.6-1.5c0.2-0.7,0.3-1.4,0.5-2.1C26,2.7,26.8,2,28,1.9c1.3-0.1,2.6-0.1,3.9,0.1
		c1,0.1,1.6,0.8,1.9,1.7s0.6,1.9,0.9,2.9c0.1,0.3,0.2,0.4,0.5,0.6c0.8,0.5,1.5,0.5,2.3-0.1c0.5-0.4,1.1-0.6,1.7-0.9
		c1.2-0.6,2.3-0.5,3.3,0.4c0.8,0.8,1.5,1.5,2.3,2.3c0.8,0.9,0.9,1.9,0.4,2.9c-0.4,0.8-0.8,1.5-1.2,2.3c-0.5,0.8,0.1,2.3,1,2.6
		c0.8,0.3,1.7,0.5,2.5,0.7c1.2,0.3,1.8,1.1,1.9,2.4c0,1.2,0,2.5,0,3.7c0,0.9-0.8,1.7-1.8,2c-0.8,0.3-1.6,0.5-2.4,0.7
		c-0.5,0.1-0.8,0.4-1,0.9s-0.4,0.9-0.6,1.4C43.3,29,43,29.2,42.5,29s-0.7-0.7-0.5-1.2c0.3-0.7,0.6-1.4,0.9-2.2
		c0.2-0.4,0.4-0.6,0.8-0.7c1-0.3,2.1-0.6,3.1-0.9c0.7-0.2,1-0.5,1-1.2c0-0.9,0-1.7,0-2.6c0-0.8-0.2-1-0.9-1.2c-1-0.3-2-0.6-3-0.9
		c-0.5-0.1-0.8-0.4-1-0.9c-0.2-0.6-0.5-1.3-0.8-1.9c-0.2-0.4-0.2-0.8,0.1-1.3c0.6-0.9,1.1-1.9,1.6-2.8c0.4-0.6,0.3-0.8-0.2-1.3
		c-0.7-0.7-1.3-1.3-2-2C41,7.3,40.7,7.3,40,7.7c-1,0.6-1.9,1.1-2.9,1.6c-0.2,0.1-0.6,0.1-0.8,0c-0.7-0.2-1.3-0.6-2-0.8
		c-0.5-0.2-0.8-0.6-1-1.1c-0.3-1.1-0.6-2.1-0.9-3.1c-0.1-0.5-0.4-0.7-0.9-0.7c-1,0-2,0-3,0c-0.6,0-0.8,0.2-1,0.7
		c-0.3,1-0.6,2.1-0.9,3.1c-0.1,0.5-0.4,0.9-0.9,1.1c-0.7,0.3-1.4,0.6-2.1,0.9c-0.3,0.1-0.6,0.1-0.8,0c-1-0.5-2-1.1-3-1.7
		c-0.5-0.3-0.9-0.3-1.3,0.1C17.7,8.5,17,9.3,16.3,10c-0.3,0.3-0.3,0.6-0.1,1c0.6,1,1.1,2,1.7,3c0.2,0.4,0.2,0.8,0.1,1.2
		c-0.3,0.7-0.6,1.4-0.9,2.1c-0.2,0.5-0.6,0.6-1,0.7c-1,0.3-2,0.6-2.9,0.9c-0.8,0.2-1,0.5-1,1.3s0,1.6,0,2.5c0,0.7,0.2,1,0.9,1.2
		c1,0.3,2,0.6,3,0.9c0.5,0.1,0.8,0.4,0.9,0.8c0.3,0.7,0.6,1.4,0.9,2.1c0.2,0.5,0.1,0.9-0.4,1.2c-0.5,0.2-0.9,0.1-1.1-0.4
		c-0.3-0.5-0.5-1.1-0.7-1.6c-0.1-0.2-0.3-0.4-0.6-0.5c-0.9-0.3-1.7-0.6-2.6-0.8c-1.1-0.3-2.4-1.1-2.3-2.5
		C10.2,22.6,10.2,22.2,10.2,21.7L10.2,21.7z"/>
	<path class="st0" d="M29.7,12.1c1.3,0.1,1.7,0.2,2.8,0.5c0.6,0.2,0.9,0.6,0.7,1.1s-0.5,0.7-1.1,0.6c-1.4-0.3-2.7-0.5-4.1-0.1
		c-2.3,0.6-4,1.9-5,4.1c-1.4,2.8-1,6.4,1.5,8.8c3,3,7.9,2.8,10.9-0.2c2.5-2.6,2.6-6.8,0.7-9.6C36,17.2,36,17.2,35.9,17
		c-0.3-0.5-0.3-1,0.1-1.3c0.4-0.3,1-0.2,1.3,0.3c0.6,0.9,1.1,1.9,1.5,2.9c1.2,3.7-0.2,7.8-3.3,10.1c-3,2.2-6.2,2.6-9.5,1.1
		c-3-1.4-4.8-3.8-5.3-7.1c-0.4-2.6,0.1-5,1.9-7.1C24.3,13.6,26.6,12.1,29.7,12.1z"/>
	<path class="st0" d="M7.2,39.1c0-0.8,0.7-1.5,1.5-1.5s1.5,0.8,1.5,1.6c0,0.9-0.7,1.6-1.6,1.6C7.8,40.7,7.2,40,7.2,39.1z"/>
</g>
</svg>
