<?xml version="1.0" encoding="utf-8"?>
<!-- Generator: Adobe Illustrator 22.0.0, SVG Export Plug-In . SVG Version: 6.00 Build 0)  -->
<svg version="1.1" id="Layer_1" xmlns="http://www.w3.org/2000/svg" xmlns:xlink="http://www.w3.org/1999/xlink" x="0px" y="0px"
	 viewBox="0 0 56.7 56.7" style="enable-background:new 0 0 56.7 56.7;" xml:space="preserve">
<style type="text/css">
	.st0{fill:#FFFFFF;}
</style>
<path class="st0" d="M55.3,38.6c0,1.1,0,2.1-0.1,3.3c0,0.7-0.4,0.8-0.8,0.8c-0.4,0-0.7-0.4-0.7-0.9c0-1.2,0-2.5,0-3.7
	c-0.1-3.1-1.5-5.5-4.2-7c-2.6-1.5-5.3-1.6-8,0c-0.8,0.5-1.5,1.1-2.2,1.7c-0.4,0.3-0.4,0.8-0.1,1.2c1.8,2.5,2.5,5.3,2.6,8.3
	c0,1.7,0,3.4-0.1,5.2c0,0.6-0.3,0.9-0.8,0.9c-0.4,0-0.8-0.3-0.8-0.9l0.1-4c0,0,0-2.7-0.2-4c-0.5-2.6-1.8-4.8-3.8-6.5
	c-2.8-2.4-6-3.3-9.6-2.8c-2.8,0.4-5.1,1.7-7,3.8c-2,2.3-3,4.9-3.1,8c0,1.8,0,3.6,0,5.4c0,0.5-0.2,0.8-0.5,0.9
	c-0.5,0.1-0.9-0.2-1-0.7c-0.1-0.7-0.1-1.3-0.1-1.8c-0.1-2.1-0.1-4.1,0.3-6.2c0.3-1.9,1.1-3.7,2.2-5.3c0.1-0.1,0.1-0.2,0.2-0.3
	c0.2-0.4,0.2-0.7-0.1-1c-1.5-1.5-3.2-2.6-5.3-2.8C9.4,30,7,30.8,5.1,32.9c-1,1.1-1.7,2.5-2,4c-0.1,0.6-0.2,1.3-0.2,2c0,1,0,2,0,3
	c0,0.2-0.1,0.5-0.2,0.6c-0.2,0.3-0.5,0.4-0.8,0.3c-0.3-0.1-0.5-0.3-0.5-0.6c-0.1-2.3-0.3-4.5,0.3-6.8c1.2-3.9,4.6-6.7,8.6-7
	c3.1-0.2,5.7,0.9,7.9,3.1c0.7,0.7,0.5,0.7,1.3,0.1c0.8-0.6,1.7-1.2,2.5-1.7c1.6-0.9,3.3-1.4,5.1-1.5c1.9-0.2,3.9,0,5.7,0.7
	c0.9,0.3,1.7,0.8,2.5,1.3c0.7,0.4,1.4,1,2.1,1.5c0.3,0.2,0.5,0.2,0.7-0.1c1.1-1.2,2.3-2.1,3.8-2.7c4-1.6,8.6-0.4,11.2,3
	C54.6,34,55.3,36.2,55.3,38.6z M19.3,17.4c0-4.9,4-9,9-9s9,4,9,9s-4,9-9,9S19.3,22.4,19.3,17.4z M21,17.2c0,4.2,3.3,7.5,7.3,7.5
	c4.1,0,7.4-3.3,7.4-7.4s-3.3-7.3-7.3-7.4C24.3,9.9,21,13.2,21,17.2z M39.3,20.1c0-3.4,2.8-6.3,6.3-6.3s6.3,2.8,6.3,6.3
	c0,3.4-2.9,6.2-6.3,6.2S39.4,23.5,39.3,20.1z M40.9,20.1c0,2.5,2.1,4.6,4.6,4.6c2.7,0,4.7-2,4.7-4.6s-2.1-4.6-4.6-4.6
	C43,15.5,40.9,17.6,40.9,20.1z M20.2,41.2c-0.5,0-0.8,0.3-0.8,0.8c0,1.8,0,3.7,0,5.5c0,0.2,0.1,0.5,0.3,0.6c0.2,0.2,0.6,0.2,0.9,0.1
	c0.3-0.1,0.4-0.4,0.4-0.7c0-1,0-1.9,0-2.8c0-0.9,0-1.8,0-2.7C21,41.5,20.7,41.2,20.2,41.2z M36.5,41.1c-0.5,0-0.8,0.4-0.8,0.9
	c0,1.8,0,3.6,0,5.4c0,0.6,0.3,0.9,0.8,0.9s0.8-0.4,0.8-0.9c0-0.9,0-1.8,0-2.7s0-1.8,0-2.7C37.3,41.4,37,41.1,36.5,41.1z M51,37.5
	c-0.5,0-0.8,0.4-0.8,0.9s0,1.1,0,1.7c0,0.6,0,1.2,0,1.8c0,0.5,0.3,0.8,0.8,0.8s0.8-0.3,0.8-0.8c0-1.2,0-2.3,0-3.5
	C51.8,37.8,51.5,37.5,51,37.5z M5.7,37.5c-0.5,0-0.8,0.4-0.8,0.9s0,1.1,0,1.7c0,0.6,0,1.2-0.1,1.8c0,0.5,0.3,0.9,0.8,0.9
	s0.9-0.3,0.9-0.9c0-1.2,0-2.3,0-3.5C6.5,37.8,6.2,37.5,5.7,37.5z M4.8,20.1c0-3.4,2.8-6.3,6.3-6.3s6.3,2.8,6.3,6.3
	c0,3.4-2.9,6.2-6.3,6.2S4.9,23.5,4.8,20.1z M6.4,20.1c0,2.5,2.1,4.6,4.6,4.6c2.7,0,4.7-2,4.7-4.6s-2.1-4.6-4.6-4.6
	C8.5,15.5,6.4,17.6,6.4,20.1z"/>
</svg>
