<?xml version="1.0" encoding="utf-8"?>
<!-- Generator: Adobe Illustrator 22.0.0, SVG Export Plug-In . SVG Version: 6.00 Build 0)  -->
<svg version="1.1" id="Layer_1" xmlns="http://www.w3.org/2000/svg" xmlns:xlink="http://www.w3.org/1999/xlink" x="0px" y="0px"
	 viewBox="0 0 28.3 28.3" style="enable-background:new 0 0 28.3 28.3;" xml:space="preserve">
<style type="text/css">
	.st0{fill:#25F4EE;}
	.st1{fill:#FE2C55;}
</style>
<g>
	<g>
		<path class="st0" d="M11.6,11.4v-1c-0.4-0.1-0.7-0.1-1.1-0.1c-3.5,0-6.6,2.3-7.7,5.6s0.2,7,3.1,9c-3-3.2-2.9-8.3,0.4-11.4
			C7.7,12.2,9.6,11.4,11.6,11.4L11.6,11.4z"/>
		<path class="st0" d="M11.8,23.1c2,0,3.6-1.6,3.7-3.5V2h3.2c-0.1-0.4-0.1-0.7-0.1-1.1h-4.4v17.5c-0.1,2-1.7,3.5-3.7,3.5
			c-0.6,0-1.2-0.2-1.7-0.4C9.5,22.5,10.6,23.1,11.8,23.1z M24.7,8V7c-1.2,0-2.3-0.3-3.3-1C22.2,7,23.4,7.7,24.7,8z"/>
	</g>
	<path class="st1" d="M21.3,6c-1-1.1-1.5-2.5-1.5-4h-1.2C19,3.6,19.9,5.1,21.3,6z M10.5,14.6c-2,0-3.7,1.7-3.7,3.7
		c0,1.4,0.8,2.6,2,3.2c-1.2-1.6-0.8-3.9,0.8-5.1c0.6-0.5,1.4-0.7,2.2-0.7c0.4,0,0.7,0.1,1.1,0.2v-4.5c-0.4-0.1-0.7-0.1-1.1-0.1h-0.2
		v3.4C11.2,14.6,10.9,14.6,10.5,14.6z"/>
	<path class="st1" d="M24.7,8v3.4c-2.2,0-4.3-0.7-6.1-2v8.9c0,4.5-3.6,8.1-8.1,8.1c-1.7,0-3.3-0.5-4.6-1.5c3,3.3,8.1,3.4,11.4,0.4
		c1.6-1.5,2.6-3.7,2.6-5.9v-8.9c1.8,1.3,3.9,2,6.1,2V8.1C25.5,8.1,25.1,8,24.7,8L24.7,8z"/>
	<path d="M18.6,18.3V9.4c1.8,1.3,3.9,2,6.1,2V7.9c-1.3-0.3-2.5-1-3.3-2c-1.4-0.9-2.4-2.3-2.7-4h-3.2v17.6c-0.1,2-1.8,3.6-3.8,3.5
		c-1.1,0-2.2-0.6-2.8-1.5c-1.8-0.9-2.5-3.2-1.5-5c0.6-1.2,1.9-2,3.2-2c0.4,0,0.7,0.1,1.1,0.2v-3.4c-4.4,0.1-8,3.7-7.9,8.2
		c0,2,0.8,3.9,2.2,5.4c1.4,0.9,3,1.4,4.6,1.4C14.9,26.3,18.6,22.7,18.6,18.3L18.6,18.3z"/>
</g>
</svg>
