<?xml version="1.0" encoding="utf-8"?>
<!-- Generator: Adobe Illustrator 22.0.0, SVG Export Plug-In . SVG Version: 6.00 Build 0)  -->
<svg version="1.1" id="Layer_1" xmlns="http://www.w3.org/2000/svg" xmlns:xlink="http://www.w3.org/1999/xlink" x="0px" y="0px"
	 viewBox="0 0 40 40" style="enable-background:new 0 0 40 40;" xml:space="preserve">
<style type="text/css">
	.st0{fill:#FFFFFF;}
</style>
<g>
	<path class="st0" d="M16,12.5c-0.3-0.7-0.7-0.7-1-0.7c-0.3,0-0.5,0-0.8,0c-0.3,0-0.8,0.1-1.1,0.5c-0.4,0.4-1.5,1.5-1.5,3.6
		c0,2.1,1.5,4.2,1.8,4.4c0.2,0.3,3,4.8,7.3,6.5c3.6,1.4,4.4,1.1,5.2,1.1c0.8-0.1,2.5-1,2.9-2c0.4-1,0.4-1.9,0.3-2
		c-0.1-0.2-0.4-0.3-0.8-0.5c-0.4-0.2-2.5-1.3-2.9-1.4c-0.4-0.1-0.7-0.2-1,0.2c-0.3,0.4-1.1,1.4-1.4,1.7c-0.3,0.3-0.5,0.3-0.9,0.1
		c-0.4-0.2-1.8-0.7-3.5-2.1c-1.3-1.1-2.1-2.5-2.4-3c-0.3-0.4,0-0.7,0.2-0.9c0.2-0.2,0.4-0.5,0.6-0.8c0.2-0.3,0.3-0.4,0.4-0.7
		c0.1-0.3,0.1-0.5,0-0.8C17.2,15.4,16.3,13.3,16,12.5L16,12.5z"/>
	<path class="st0" d="M32.4,7.5c-3.2-3.2-7.6-5-12.2-5c-9.5,0-17.2,7.7-17.2,17.2c0,3,0.8,6,2.3,8.6l-2.4,8.9l9.1-2.4
		c2.5,1.4,5.3,2.1,8.2,2.1h0h0c9.5,0,17.2-7.7,17.2-17.2C37.4,15.1,35.7,10.8,32.4,7.5L32.4,7.5z M20.3,33.9L20.3,33.9
		c-2.6,0-5.1-0.7-7.3-2l-0.5-0.3l-5.4,1.4l1.4-5.3l-0.3-0.5C6.7,25,6,22.4,6,19.7c0-7.9,6.4-14.3,14.3-14.3c3.8,0,7.4,1.5,10.1,4.2
		c2.7,2.7,4.2,6.3,4.2,10.1C34.5,27.5,28.1,33.9,20.3,33.9z"/>
</g>
</svg>
