<?xml version="1.0" encoding="utf-8"?>
<!-- Generator: Adobe Illustrator 22.0.0, SVG Export Plug-In . SVG Version: 6.00 Build 0)  -->
<svg version="1.1" id="Flat" xmlns="http://www.w3.org/2000/svg" xmlns:xlink="http://www.w3.org/1999/xlink" x="0px" y="0px"
	 viewBox="0 0 28.3 28.3" style="enable-background:new 0 0 28.3 28.3;" xml:space="preserve">
<style type="text/css">
	.st0{fill:#FFFFFF;}
</style>
<path class="st0" d="M12.3,16.1v6.2c0,0.5-0.4,1-1,1c-0.1,0-0.1,0-0.2,0l-7.7-1.4c-0.5-0.1-0.8-0.5-0.8-0.9v-4.8c0-0.5,0.4-1,1-1
	h7.7C11.8,15.1,12.3,15.6,12.3,16.1z M11.9,5.3c-0.2-0.2-0.5-0.3-0.8-0.2L3.5,6.5C3,6.6,2.7,7,2.7,7.5v4.8c0,0.5,0.4,1,1,1h7.7
	c0.5,0,1-0.4,1-1V6.1C12.3,5.8,12.1,5.5,11.9,5.3z M25.3,2.9c-0.2-0.2-0.5-0.3-0.8-0.2L15,4.4c-0.5,0.1-0.8,0.5-0.8,0.9v6.9
	c0,0.5,0.4,1,1,1h9.6c0.5,0,1-0.4,1-1V3.6C25.7,3.3,25.6,3.1,25.3,2.9z M24.7,15.1h-9.6c-0.5,0-1,0.4-1,1V23c0,0.5,0.3,0.9,0.8,0.9
	l9.6,1.7c0.5,0.1,1-0.3,1.1-0.8c0-0.1,0-0.1,0-0.2v-8.6C25.7,15.6,25.3,15.1,24.7,15.1z"/>
</svg>
