<?xml version="1.0" encoding="utf-8"?>
<!-- Generator: Adobe Illustrator 22.0.0, SVG Export Plug-In . SVG Version: 6.00 Build 0)  -->
<svg version="1.1" id="Layer_1" xmlns="http://www.w3.org/2000/svg" xmlns:xlink="http://www.w3.org/1999/xlink" x="0px" y="0px"
	 viewBox="0 0 28.3 28.3" style="enable-background:new 0 0 28.3 28.3;" xml:space="preserve">
<style type="text/css">
	.st0{fill:#ED1C24;}
</style>
<path class="st0" d="M27.1,7.6c-0.3-1.2-1.2-2.1-2.4-2.4c-2.1-0.6-10.6-0.6-10.6-0.6s-8.5,0-10.6,0.6C2.4,5.5,1.5,6.5,1.2,7.6
	c-0.6,2.1-0.6,6.6-0.6,6.6s0,4.4,0.6,6.6c0.3,1.2,1.2,2.1,2.4,2.4c2.1,0.6,10.6,0.6,10.6,0.6s8.5,0,10.6-0.6
	c1.2-0.3,2.1-1.2,2.4-2.4c0.6-2.1,0.6-6.6,0.6-6.6S27.7,9.8,27.1,7.6z M11.4,18.2v-8.1l7.1,4L11.4,18.2L11.4,18.2z"/>
</svg>
