<?xml version="1.0" encoding="utf-8"?>
<!-- Generator: Adobe Illustrator 22.0.0, SVG Export Plug-In . SVG Version: 6.00 Build 0)  -->
<svg version="1.1" id="Layer_1" xmlns="http://www.w3.org/2000/svg" xmlns:xlink="http://www.w3.org/1999/xlink" x="0px" y="0px"
	 viewBox="0 0 991 80" style="enable-background:new 0 0 991 80;" xml:space="preserve">
<style type="text/css">
	.st0{fill:#FFFFFF;}
</style>
<path class="st0" d="M569.7,0c-15.4,0-19.5,10.5-20.4,13.8c-0.1,0.3-0.1,0.7-0.2,1c0,0,0,0,0,0l0,0c-6.1,23.8-27.8,41.4-53.5,41.4
	c-25.7,0-47.4-17.6-53.5-41.4l0,0c0,0,0,0,0,0c-0.1-0.3-0.2-0.7-0.2-1c-0.9-3.4-5-13.8-20.4-13.8v0H0v80h991V0H569.7z"/>
</svg>
